<?xml version="1.0" encoding="UTF-8"?>
<svg version="1.1" xmlns="http://www.w3.org/2000/svg" width="2259" height="864">
<path d="M0 0 C0.80050781 0.66644531 1.60101562 1.33289063 2.42578125 2.01953125 C14.77449605 12.67821976 23.87857452 25.40870009 31 40 C33.78062333 36.57387483 36.40978182 33.07136143 39 29.5 C61.77057893 -0.76187689 93.66333427 -19.19988547 131 -25.25 C166.22988049 -29.36200498 203.37244693 -23.35566906 231.98828125 -1.3984375 C232.98214844 -0.60695313 233.97601562 0.18453125 235 1 C235.83917969 1.66773438 236.67835938 2.33546875 237.54296875 3.0234375 C264.2536323 25.55050315 276.0441793 61.2098808 279 95 C279.13352917 98.05990371 279.15200299 101.11469419 279.15390015 104.17723083 C279.1582824 105.05582876 279.16266465 105.93442668 279.1671797 106.83964878 C279.18044687 109.75955662 279.18671892 112.67943439 279.19287109 115.59936523 C279.20078117 117.70266858 279.20905067 119.8059706 279.21765137 121.90927124 C279.24375135 128.79236577 279.25915991 135.67546605 279.2734375 142.55859375 C279.2788008 144.93360968 279.28417831 147.30862557 279.28956985 149.68364143 C279.31117461 159.56196155 279.32991212 169.4402801 279.34119225 179.31861782 C279.35744305 193.45334575 279.39067619 207.58779941 279.44759309 221.72242397 C279.4863038 231.67597024 279.50582588 241.62944314 279.51111281 251.58306271 C279.5147626 257.52238796 279.5267465 263.46141984 279.55921555 269.40066338 C279.58931835 274.98632894 279.59559986 280.57152385 279.58383179 286.15725327 C279.58361129 288.20263869 279.59189641 290.24804614 279.60948563 292.29335594 C279.78196658 313.51021922 279.78196658 313.51021922 272.11800194 322.11238766 C266.89528671 327.39182925 260.86418273 329.75754852 253.4921875 330.125 C246.23162493 329.76083385 239.42342122 327.30810598 234.14453125 322.20703125 C228.46999999 315.18742591 226.53948279 307.25854137 226.62145996 298.37013245 C226.61692983 297.55026523 226.6123997 296.73039801 226.6077323 295.88568634 C226.59619191 293.16394062 226.6057215 290.44269437 226.61523438 287.72094727 C226.61112515 285.75869939 226.60566221 283.79645396 226.59895325 281.83421326 C226.5872549 277.61911229 226.5847346 273.40414218 226.58930969 269.18902779 C226.59614336 262.50851445 226.58020773 255.82817174 226.56091309 249.14768982 C226.5230981 234.95263573 226.51027742 220.75759671 226.5 206.5625 C226.48890723 191.26569454 226.47335631 175.9689684 226.42928743 160.67221683 C226.41105 154.04789538 226.40699652 147.42377043 226.41422272 140.79943001 C226.41575795 136.65437576 226.40487651 132.50941738 226.39084435 128.36438942 C226.38688316 126.46106582 226.38789456 124.55772335 226.39461708 122.6544075 C226.44428183 107.40550657 225.41732807 92.18304661 220.25 77.6875 C219.86593994 76.58051758 219.86593994 76.58051758 219.47412109 75.45117188 C215.49309583 64.38396963 209.81811362 54.81683472 202 46 C201.44699219 45.36449219 200.89398437 44.72898437 200.32421875 44.07421875 C187.64003642 30.42131605 166.99532622 22.84273239 148.64599609 21.87597656 C122.12732989 21.0627977 97.33613248 26.60643726 77.13671875 44.9296875 C57.35619942 63.7897574 47.40937757 91.03395829 46.66196167 118.05984104 C46.60266398 122.26621355 46.61177675 126.47085726 46.63110352 130.67749023 C46.62862797 132.57360551 46.62478197 134.46971941 46.61968994 136.36582947 C46.61143006 140.4089106 46.61209189 144.45185049 46.61987495 148.49493217 C46.63157089 154.89700069 46.61920415 161.29889174 46.60325623 167.70094299 C46.56726298 183.58823622 46.56083408 199.47552364 46.56335449 215.362854 C46.5650681 227.74353197 46.55790354 240.12406252 46.52337593 252.50469929 C46.50664407 258.86091311 46.50832102 265.21676584 46.52419865 271.5729779 C46.53001377 275.52979082 46.51922441 279.48643395 46.50395203 283.44321632 C46.50024115 285.26886287 46.50328917 287.09453845 46.51382256 288.92015839 C46.57195443 299.71920276 46.47830008 309.45189736 40.140625 318.71875 C32.65901705 325.76753766 26.58370517 327.68545796 16.25390625 327.41015625 C8.72912809 326.4616548 3.09007307 322.86793734 -1.74609375 317.13671875 C-5.30215307 311.07701642 -6.44402327 305.59432905 -6.38526917 298.70471191 C-6.39050486 297.90878931 -6.39574056 297.1128667 -6.40113491 296.29282522 C-6.41501763 293.64623095 -6.40781495 291.00013001 -6.40063477 288.35351562 C-6.40638176 286.4472816 -6.41346637 284.54105121 -6.42178345 282.63482666 C-6.43686957 278.53811777 -6.44267307 274.44153897 -6.44125557 270.34480286 C-6.43921592 263.85394099 -6.45883165 257.36325277 -6.48143005 250.87243652 C-6.52237852 238.25248449 -6.54099103 225.63254619 -6.55760193 213.01254272 C-6.57996063 196.9784973 -6.61373184 180.94449245 -6.66480106 164.91051245 C-6.68460557 158.47216654 -6.69429495 152.0339114 -6.69575322 145.59553623 C-6.69852558 141.56968709 -6.7094041 137.5438871 -6.72226334 133.51805878 C-6.72650268 131.66711132 -6.72743072 129.81615246 -6.72458839 127.96520233 C-6.68330374 97.56565113 -12.03001539 67.44174899 -33.98828125 44.859375 C-50.6314888 28.57051023 -73.0848823 22.73942062 -95.78588867 22.7512207 C-120.40142934 23.09791846 -142.51412258 32.96626498 -160.140625 50.078125 C-182.01500838 73.33042229 -188.49977954 104.63369203 -188.38476562 135.54150391 C-188.38888341 137.42278368 -188.39435134 139.30406089 -188.40104675 141.18533325 C-188.41266104 145.19567533 -188.41529652 149.20588023 -188.41069031 153.21623611 C-188.4038175 159.56287776 -188.41985218 165.90934213 -188.43908691 172.25595093 C-188.47993855 186.85731141 -188.49149335 201.45866585 -188.50261688 216.06007385 C-188.51313728 229.48177281 -188.52991521 242.90338516 -188.57071257 256.32503068 C-188.58902775 262.63017006 -188.59297692 268.93510268 -188.58577728 275.24026227 C-188.58425384 279.15866608 -188.59504765 283.07696653 -188.60915565 286.99534225 C-188.61315153 288.80773275 -188.61204488 290.62014298 -188.60538292 292.43252563 C-188.5969701 294.91194389 -188.60702637 297.39064992 -188.62145996 299.87002563 C-188.61456603 300.58150682 -188.60767209 301.29298801 -188.60056925 302.02602923 C-188.69151298 310.08016206 -191.50189407 316.42351806 -197.00390625 322.234375 C-203.39852506 327.89067188 -210.19000344 328.71614067 -218.55859375 328.4453125 C-226.20383807 327.45603003 -231.82059832 323.97379841 -236.74609375 318.13671875 C-240.54788672 311.65827403 -241.43770102 305.93657304 -241.36749268 298.58317566 C-241.37076152 297.66553934 -241.37403036 296.74790302 -241.37739825 295.80245954 C-241.38465356 292.7407757 -241.37054261 289.67957424 -241.35644531 286.61791992 C-241.35723691 284.41333434 -241.3593364 282.2087489 -241.36264038 280.00416565 C-241.36778035 274.00386087 -241.3542013 268.00372745 -241.33711338 262.00345016 C-241.32196735 255.64572204 -241.32324779 249.28799521 -241.32244873 242.93025208 C-241.31874899 232.18222643 -241.30388409 221.43427791 -241.28125 210.6862793 C-241.25835796 199.80704209 -241.24394481 188.92784502 -241.24023438 178.04858398 C-241.23999635 177.38752808 -241.23975833 176.72647217 -241.2395131 176.04538427 C-241.23831752 172.71899589 -241.23715879 169.39260749 -241.23599529 166.06621909 C-241.22366338 135.81721827 -241.14454996 105.56873367 -241.01388168 75.32002163 C-241.00035683 72.0853422 -240.98811741 68.85066068 -240.97634888 65.61597443 C-240.93516185 54.49591285 -240.87476239 43.37637083 -240.77437592 32.25667763 C-240.74619758 29.08154302 -240.72657379 25.90655154 -240.715065 22.73131371 C-240.69909068 18.48363093 -240.65192874 14.2369043 -240.60058594 9.98950195 C-240.60014534 8.78384645 -240.59970474 7.57819096 -240.59925079 6.33600044 C-240.46126557 -1.77300959 -239.13350104 -8.12955704 -233.95703125 -14.5234375 C-227.80472519 -19.83526459 -222.59305267 -22.50788721 -214.5 -23.375 C-206.90097615 -22.56081887 -199.3638903 -20.08184291 -194.37109375 -14.0234375 C-189.2416513 -6.82985797 -187.7977643 0.02574238 -187.5859375 8.78125 C-187.56657135 9.48020386 -187.5472052 10.17915771 -187.5272522 10.89929199 C-187.4681785 13.09940964 -187.42136527 15.29958172 -187.375 17.5 C-187.33675343 19.00522929 -187.29769799 20.51043825 -187.2578125 22.015625 C-187.16253875 25.6768957 -187.07824644 29.33832122 -187 33 C-186.35611328 32.05898438 -185.71222656 31.11796875 -185.04882812 30.1484375 C-164.69140264 0.52461197 -136.35014601 -18.49855567 -100.91357422 -25.40673828 C-65.39754236 -31.6340869 -27.78182034 -23.45474036 0 0 Z " fill="#040529" transform="translate(1980,276)"/>
<path d="M0 0 C0.73317444 0.00021149 1.46634888 0.00042297 2.22174072 0.00064087 C36.85128025 0.09934184 90.12513994 8.09388197 116.6640625 33.12109375 C122.12704489 39.14073075 123.88304734 45.28557127 123.8125 53.375 C122.76768662 60.2584764 120.24197406 65.90576043 114.8125 70.375 C108.9092582 74.18609672 102.7602957 75.51079576 95.8125 74.375 C90.19419035 72.67163649 85.2189286 70.05337668 80.125 67.1875 C49.65510454 50.63679133 9.0690867 39.73670611 -25.1875 49.375 C-39.37566516 53.79161242 -52.39887495 60.9333175 -59.8203125 74.3203125 C-64.47464391 84.2938798 -66.1205315 95.35568077 -63.50390625 106.2109375 C-62.5649513 108.43170231 -61.50475583 110.35769312 -60.1875 112.375 C-59.79820312 113.03371094 -59.40890625 113.69242187 -59.0078125 114.37109375 C-42.3198956 139.69920432 0.63867413 146.94866273 27.77337646 155.37115479 C82.3271547 172.30957879 82.3271547 172.30957879 102.8125 189.375 C103.65683594 190.06980469 104.50117187 190.76460937 105.37109375 191.48046875 C120.30567039 204.32375003 130.62942479 220.58542324 132.8125 240.375 C134.79307285 270.5273532 129.02456219 296.45196267 109.14453125 319.8203125 C88.48281727 342.45475294 56.36856935 355.13294141 26.02807617 356.55200195 C-24.88384584 357.3473522 -72.05864508 346.25050952 -115.125 318.125 C-115.85259521 317.65400879 -116.58019043 317.18301758 -117.32983398 316.69775391 C-123.37288707 312.61305151 -129.21924664 307.67050197 -131.1875 300.375 C-132.31379354 291.99300489 -130.9937885 285.35272462 -126.1875 278.375 C-121.31152293 273.37070775 -115.7391981 271.22353474 -108.875 270.875 C-100.60566636 271.16672683 -94.95093477 275.12590013 -88.31298828 279.74536133 C-55.06890645 302.75119711 -8.29904458 316.23195678 32.08203125 309.65234375 C47.923502 306.44643359 64.28533927 298.82143035 73.8125 285.375 C81.00072896 273.38394545 83.66050319 261.52513688 81.34765625 247.5703125 C78.02334589 234.94186722 69.10008017 225.91772795 58.17407227 219.35302734 C38.54223277 208.02644123 16.13320772 202.08077948 -5.55465698 196.00750732 C-33.3785214 188.21298933 -63.32474749 179.81573865 -86.1875 161.375 C-86.69812988 160.96314453 -87.20875977 160.55128906 -87.73486328 160.12695312 C-102.59566551 147.9226512 -111.64495903 132.37804351 -115.1875 113.375 C-115.60925269 108.63706281 -115.6650132 103.94213952 -115.625 99.1875 C-115.61670166 97.91173096 -115.60840332 96.63596191 -115.59985352 95.3215332 C-115.16486544 70.94207715 -106.20756842 49.80379134 -89.4375 32.125 C-65.17060019 9.13728561 -32.87334511 -0.08845224 0 0 Z " fill="#040529" transform="translate(726.1875,250.625)"/>
<path d="M0 0 C5.58013162 4.20639693 10.15792795 10.08132326 11.36283112 17.11935425 C11.48775658 19.38722195 11.49571759 21.62361618 11.45410156 23.89453125 C11.45468567 24.7442601 11.45526978 25.59398895 11.45587158 26.46946716 C11.4531065 29.25090792 11.42209025 32.03124873 11.390625 34.8125 C11.38315698 36.75162165 11.3774667 38.69075089 11.37347412 40.62988281 C11.35826195 45.71320738 11.31901843 50.7960688 11.2746582 55.87921143 C11.23360993 61.07435848 11.21544274 66.26958098 11.1953125 71.46484375 C11.15251972 81.64343173 11.08432222 91.82167723 11 102 C12.11784882 101.99333817 13.23569763 101.98667633 14.38742065 101.97981262 C24.95046638 101.91885196 35.51347616 101.8739557 46.07665825 101.84456348 C51.50658405 101.8289444 56.93636721 101.80777494 62.36621094 101.77368164 C67.61170977 101.740954 72.85707185 101.72311876 78.10266495 101.71536827 C80.09842199 101.70984877 82.09417202 101.69907078 84.08987045 101.68280983 C86.89715172 101.66085722 89.70387643 101.65804048 92.51123047 101.65942383 C93.32619492 101.648638 94.14115936 101.63785217 94.9808197 101.6267395 C103.32847122 101.67090697 111.34468015 103.37087448 117.53125 109.265625 C121.6681576 114.15069674 123.77116307 119.59256592 124 126 C122.81305822 133.47773319 120.03258074 139.49482461 114.125 144.375 C107.66980943 147.7316991 101.77966912 148.28760521 94.66821289 148.22705078 C93.76010864 148.22734283 92.85200439 148.22763489 91.91638184 148.22793579 C88.93504048 148.22654999 85.95395359 148.2110242 82.97265625 148.1953125 C80.89757931 148.1915797 78.8225006 148.18873399 76.74742126 148.18673706 C71.30092453 148.17912161 65.85453543 148.15949107 60.40808105 148.1373291 C54.84433447 148.11682564 49.2805704 148.10772573 43.71679688 148.09765625 C32.81115078 148.0762432 21.90558436 148.04213251 11 148 C11.03721698 175.53004105 11.09715187 203.05995229 11.18390274 230.5898838 C11.22365968 243.37340115 11.2560692 256.15685724 11.27099609 268.94042969 C11.2840299 280.08660401 11.31103884 291.23264334 11.35461307 302.37874162 C11.37718879 308.27688337 11.392913 314.17485886 11.39188385 320.07304764 C11.39113495 325.63318076 11.40917811 331.19294689 11.44116783 336.752985 C11.4496338 338.78535982 11.45143942 340.81777596 11.44580269 342.8501606 C11.40254994 360.85403162 13.53034185 376.00535747 26.3125 389.8125 C37.8578927 400.58303413 51.4740864 403.52207853 66.79980469 403.10205078 C75.44680274 402.70098052 84.16131172 401.69514802 92.625 399.875 C100.33759967 398.25614375 105.55958805 398.48244796 112.66015625 402.30078125 C117.36832122 405.71989939 120.18131626 410.54394877 122 416 C122.68919916 422.99367675 122.48697189 429.31330301 118 435 C100.24108984 451.51222449 69.9946888 451.63234992 47.34179688 451.13183594 C22.2866117 450.14339351 -1.62833377 441.25671161 -19.125 422.875 C-33.74052481 405.69068599 -40.19733956 382.85254229 -40.12025452 360.60998535 C-40.12110894 359.69660133 -40.12196337 358.78321731 -40.12284368 357.84215498 C-40.1244833 354.79904654 -40.11900207 351.75599393 -40.11352539 348.71289062 C-40.11324317 346.52454632 -40.11340194 344.33620192 -40.1139679 342.14785767 C-40.11425449 336.21876011 -40.10838001 330.28968283 -40.10139394 324.36058998 C-40.09513748 318.15995003 -40.09455478 311.95930961 -40.09336853 305.75866699 C-40.09026198 294.02207737 -40.08205769 282.28549708 -40.07201904 270.54891157 C-40.064114 261.16900147 -40.05864935 251.78909236 -40.05493164 242.40917969 C-40.05466892 241.74816846 -40.05440619 241.08715723 -40.05413551 240.40611535 C-40.05283041 237.08981662 -40.05156898 233.77351788 -40.05032361 230.45721912 C-40.03987453 202.97147425 -40.02228816 175.48573765 -40 148 C-40.95777344 148.02094727 -41.91554688 148.04189453 -42.90234375 148.06347656 C-46.48796376 148.13639479 -50.07351953 148.18198558 -53.65966797 148.21972656 C-55.20567887 148.23972503 -56.75161527 148.26693331 -58.29736328 148.30175781 C-75.67993652 148.68329912 -75.67993652 148.68329912 -83.0234375 142.21875 C-83.46945312 141.6515625 -83.91546875 141.084375 -84.375 140.5 C-84.83648438 139.9328125 -85.29796875 139.365625 -85.7734375 138.78125 C-89.6746312 133.11582221 -90.58628171 127.2186324 -89.4375 120.5 C-87.8868592 114.62175381 -84.94593517 110.19484374 -80.05517578 106.55102539 C-72.07448063 102.03060761 -64.23646452 102.42675293 -55.375 102.6875 C-53.87894385 102.71263426 -52.38284666 102.73543832 -50.88671875 102.75585938 C-47.2569457 102.81040325 -43.62874299 102.89638539 -40 103 C-40.00666183 101.96984772 -40.01332367 100.93969543 -40.02018738 99.87832642 C-40.0811735 90.13938786 -40.12605638 80.40048839 -40.15543652 70.66140175 C-40.17104924 65.65520859 -40.19220679 60.6491704 -40.22631836 55.64306641 C-40.25906909 50.80604925 -40.27688601 45.96918054 -40.28463173 41.132061 C-40.29014714 39.29260295 -40.30091701 37.45315243 -40.31719017 35.61375809 C-40.52013242 11.7100223 -40.52013242 11.7100223 -31.90234375 2.69140625 C-22.42763603 -5.73271786 -10.85263731 -6.09113253 0 0 Z " fill="#050529" transform="translate(995,154)"/>
<path d="M0 0 C6.50229489 5.14438591 9.35652937 10.38330912 10.9453125 18.5390625 C11.67217224 25.32308672 10.22666391 32.10229798 6.43359375 37.81640625 C-0.8345286 46.58715165 -8.71647415 48.39868857 -19.5546875 50.4765625 C-53.77881772 57.46797561 -84.15062014 73.18751049 -104.1796875 102.7265625 C-115.16898015 119.49162292 -122.68255175 137.89038354 -126.8671875 157.4765625 C-127.06207764 158.37955078 -127.25696777 159.28253906 -127.45776367 160.21289062 C-131.30152338 179.57906997 -131.35189562 199.10905141 -131.36060977 218.7658453 C-131.36515309 222.49898279 -131.38319119 226.23205199 -131.40040588 229.96514893 C-131.44909133 241.01375228 -131.4805322 252.06239428 -131.50170898 263.11108398 C-131.51826415 271.74455606 -131.54109318 280.37789588 -131.58472973 289.01127934 C-131.60638961 293.43477526 -131.61457554 297.85801898 -131.61233699 302.28156424 C-131.61440211 305.6757371 -131.63576845 309.06974403 -131.65405273 312.46386719 C-131.64947556 313.67538452 -131.64489838 314.88690186 -131.6401825 316.13513184 C-131.72216404 325.70677723 -133.32287866 332.65962613 -140.05859375 339.7734375 C-146.45173175 345.42842454 -153.24564541 346.2602926 -161.61328125 345.98046875 C-168.71981309 345.06896126 -173.98444911 342.31439469 -178.4921875 336.7265625 C-184.06560002 328.92378497 -184.49150381 321.25732142 -184.44909668 311.9894104 C-184.45823334 310.10926493 -184.45823334 310.10926493 -184.46755457 308.19113672 C-184.48390045 304.72816671 -184.48164719 301.26542517 -184.4761796 297.80243015 C-184.47350278 294.06134842 -184.48805337 290.32032668 -184.50027466 286.57926941 C-184.52130303 279.25635103 -184.52587101 271.93351187 -184.52408677 264.61056687 C-184.52277789 258.65688604 -184.5265897 252.70322987 -184.53401184 246.74955368 C-184.53611109 245.03301601 -184.53820869 243.31647833 -184.54030466 241.59994066 C-184.54134819 240.74550848 -184.54239172 239.89107631 -184.54346687 239.01075225 C-184.56235861 222.86041932 -184.56132224 206.71013184 -184.55449754 190.55979244 C-184.54892226 175.79420565 -184.56974873 161.02879238 -184.60285801 146.26324613 C-184.63661359 131.09138314 -184.65176106 115.91960324 -184.64714098 100.747702 C-184.64489826 92.23406692 -184.65011066 83.72059223 -184.67503357 75.20698929 C-184.69607079 67.9591951 -184.69961472 60.71164926 -184.68073398 53.46384479 C-184.67159111 49.76829773 -184.67038791 46.07321342 -184.69108963 42.37770271 C-184.71331531 38.36567051 -184.69654634 34.35472367 -184.67614746 30.34268188 C-184.68866531 29.18274613 -184.70118316 28.02281038 -184.71408033 26.82772505 C-184.62277414 18.44079519 -182.82055316 11.75660077 -177.14109945 5.3959614 C-171.74646724 0.12474646 -165.57331891 -2.46298951 -158.0546875 -2.8359375 C-150.33056227 -2.45279637 -144.3864925 0.29278508 -138.78125 5.57421875 C-133.2923281 11.82066155 -131.96532685 18.66421648 -131.84936523 26.7980957 C-131.8194474 28.65945915 -131.8194474 28.65945915 -131.78892517 30.5584259 C-131.77194493 31.90223061 -131.75506598 33.24603659 -131.73828125 34.58984375 C-131.71769224 35.97275893 -131.69669527 37.3556681 -131.67530823 38.73857117 C-131.62028851 42.36674099 -131.5707912 45.99496571 -131.52246094 49.62322998 C-131.47209852 53.3302495 -131.41648963 57.03718996 -131.36132812 60.74414062 C-131.25399266 68.0090475 -131.15249377 75.27402042 -131.0546875 82.5390625 C-130.47315918 81.41411377 -129.89163086 80.28916504 -129.29248047 79.13012695 C-121.21682111 63.6172255 -121.21682111 63.6172255 -116.1796875 56.7265625 C-115.67703369 56.02772949 -115.17437988 55.32889648 -114.65649414 54.60888672 C-109.90458823 48.12069318 -104.67385141 42.28833729 -99.0546875 36.5390625 C-98.19488281 35.61738281 -97.33507813 34.69570313 -96.44921875 33.74609375 C-76.75863636 13.12478959 -29.18735616 -18.20396081 0 0 Z " fill="#040529" transform="translate(1366.0546875,255.4609375)"/>
<path d="M0 0 C6.26208077 5.07924329 9.44117444 10.6187986 10.796875 18.5234375 C10.88476114 20.30718542 10.92414244 22.093717 10.92550945 23.87962818 C10.9287339 24.94708548 10.93195835 26.01454279 10.9352805 27.11434728 C10.9329576 28.86442438 10.9329576 28.86442438 10.93058777 30.64985657 C10.93285333 31.89396764 10.93511888 33.1380787 10.93745309 34.41989011 C10.94268986 37.87064571 10.9434377 41.32134922 10.94225872 44.7721051 C10.94205466 48.49477186 10.9475739 52.21743085 10.95231628 55.94009399 C10.9606225 63.23265683 10.96337111 70.52521158 10.96392866 77.81777874 C10.96440385 83.74579621 10.96645873 89.673811 10.96962929 95.60182762 C10.97843588 112.40970909 10.98304867 129.21758418 10.98229881 146.02546797 C10.98225886 146.93157282 10.9822189 147.83767766 10.98217773 148.77124023 C10.98213685 149.67845175 10.98209597 150.58566326 10.98205385 151.52036604 C10.98164741 166.22276907 10.99121652 180.92514649 11.0053161 195.62754212 C11.01967999 210.72470654 11.02658627 225.82185846 11.02572232 240.91902989 C11.02539035 249.39458656 11.02813749 257.87011637 11.03890038 266.34566689 C11.04800555 273.56204944 11.05018049 280.77839298 11.04339095 287.99477879 C11.0401258 291.67574129 11.04006887 295.35662892 11.0487442 299.0375843 C11.0580578 303.03046871 11.05183302 307.02317974 11.04411316 311.0160675 C11.04925672 312.1760934 11.05440029 313.3361193 11.05969971 314.5312975 C11.01927551 323.98319847 9.92363057 331.99716923 3.796875 339.5234375 C-1.90528418 345.15089591 -7.75042964 347.4640769 -15.71484375 347.55078125 C-23.76415069 347.07004163 -29.51774747 344.64588479 -35.015625 338.7109375 C-41.43009852 331.32134212 -41.63840173 324.30150127 -41.59080505 314.89749146 C-41.59619059 313.62379224 -41.60157613 312.35009302 -41.60712487 311.03779685 C-41.62155867 307.51362297 -41.61734131 303.98968337 -41.60995805 300.46549678 C-41.60522351 296.66034557 -41.6177388 292.85524484 -41.62797546 289.05010986 C-41.64516351 281.59971423 -41.64600343 274.14940294 -41.64076256 266.69899262 C-41.63671944 260.64230551 -41.6381661 254.5856433 -41.64351082 248.52895737 C-41.64425924 247.6665916 -41.64500766 246.80422582 -41.64577876 245.91572776 C-41.64731026 244.16376607 -41.64884861 242.41180439 -41.65039373 240.65984271 C-41.66411893 224.23342021 -41.65868107 207.80704534 -41.64720852 191.38062392 C-41.63727729 176.35889415 -41.65021486 161.33728757 -41.67414271 146.31557681 C-41.69853636 130.88497959 -41.70814086 115.45443973 -41.70148998 100.02382362 C-41.6979982 91.36323901 -41.70022706 82.70274913 -41.71774101 74.04217911 C-41.73246636 66.6691921 -41.73309418 59.29636651 -41.7156701 51.92338265 C-41.70716019 48.16322315 -41.70501005 44.40335198 -41.72032166 40.64320755 C-41.73673048 36.56302182 -41.72201606 32.48353112 -41.70433044 28.40335083 C-41.71873795 26.62887264 -41.71873795 26.62887264 -41.73343652 24.81854641 C-41.65956313 16.5355327 -40.26144427 10.26138327 -34.953125 3.7734375 C-24.3879898 -4.87076403 -12.15461278 -8.14617665 0 0 Z " fill="#05052A" transform="translate(1477.203125,255.4765625)"/>
<path d="M0 0 C6.25740832 5.08486984 9.43652583 10.61794877 10.79296875 18.5234375 C10.88164691 20.30623687 10.92197735 22.09183303 10.92439651 23.87683487 C10.92823766 24.94367547 10.9320788 26.01051608 10.93603635 27.10968518 C10.93516987 28.27572113 10.93430338 29.44175707 10.93341064 30.64312744 C10.93638177 31.88653294 10.93935289 33.12993845 10.94241405 34.4110229 C10.94958792 37.85984593 10.95227286 41.30861914 10.95301151 44.75744605 C10.9548644 48.47808879 10.9624129 52.19872079 10.96914673 55.9193573 C10.98272072 64.05370212 10.98875324 72.18804201 10.99315739 80.32239628 C10.99592123 85.40256161 11.00015884 90.48272505 11.00466156 95.5628891 C11.01685272 109.63158168 11.02715252 123.70027274 11.03053665 137.76897049 C11.030866 139.11924314 11.030866 139.11924314 11.031202 140.49679403 C11.03152942 141.85027328 11.03152942 141.85027328 11.03186345 143.23109555 C11.03230692 145.0594999 11.03275348 146.88790425 11.03320312 148.71630859 C11.03342455 149.6232578 11.03364598 150.530207 11.03387412 151.46463951 C11.03782201 166.15991236 11.05527643 180.85513562 11.07856265 195.55038932 C11.10228356 210.64190866 11.11473883 225.73340312 11.11590457 240.8249414 C11.11682088 249.29663402 11.12256225 257.76826202 11.14072418 266.23993683 C11.1561351 273.45374078 11.16123976 280.66746013 11.15298608 287.88127741 C11.14908316 291.56037501 11.14999157 295.23930227 11.16404343 298.91837883 C11.17915303 302.9109795 11.17090537 306.90319746 11.16046143 310.89581299 C11.16851783 312.05292605 11.17657423 313.21003911 11.18487477 314.4022162 C11.12107479 324.83188807 9.18908992 332.02775832 1.89453125 339.640625 C-3.57316451 344.53919258 -10.0937903 345.50161774 -17.20703125 345.5234375 C-24.15761153 344.99408867 -29.27304565 342.42632655 -34.20703125 337.5234375 C-38.97518186 331.54251815 -41.32646569 326.92679508 -41.34125233 319.24902916 C-41.34793909 317.6370046 -41.34793909 317.6370046 -41.35476094 315.99241388 C-41.35457658 314.81247437 -41.35439222 313.63253485 -41.35420227 312.4168396 C-41.3597173 310.53569535 -41.3597173 310.53569535 -41.36534375 308.61654818 C-41.37535411 305.13320537 -41.37907899 301.6498798 -41.38173306 298.16652465 C-41.38563898 294.41039661 -41.39521712 290.65428218 -41.40394592 286.89816284 C-41.42370226 277.8259209 -41.43377551 268.75367786 -41.44267371 259.68141979 C-41.44705799 255.408031 -41.45242444 251.13464345 -41.45766258 246.86125565 C-41.47467407 232.65363764 -41.48916794 218.44602041 -41.49641132 204.23839378 C-41.49832118 200.55199559 -41.50024152 196.86559739 -41.50219727 193.17919922 C-41.50268101 192.26297498 -41.50316475 191.34675074 -41.50366315 190.40276213 C-41.51196236 175.56258873 -41.53729779 160.72249596 -41.56977794 145.88235776 C-41.60286002 130.64283398 -41.62086112 115.40335117 -41.62405556 100.1637913 C-41.6262196 91.60875042 -41.63495268 83.05382712 -41.66051674 74.49882126 C-41.68223944 67.21254262 -41.69026646 59.92641014 -41.68054996 52.64010279 C-41.67600976 48.92438293 -41.67787475 45.20896452 -41.6973114 41.49328613 C-41.71823033 37.45929189 -41.70794341 33.42596415 -41.69477844 29.39193726 C-41.70574769 28.22538207 -41.71671693 27.05882689 -41.72801858 25.85692155 C-41.66316128 17.61584069 -40.32373761 10.52211812 -35.1640625 3.90234375 C-24.71374188 -4.94902071 -12.04876662 -8.06094475 0 0 Z " fill="#04052A" transform="translate(1630.20703125,257.4765625)"/>
<path d="M0 0 C0.94166016 0.64388672 0.94166016 0.64388672 1.90234375 1.30078125 C10.72961214 8.08636852 17.03878543 19.12751671 19 30 C20.57569916 45.75347441 18.16600695 58.49973823 8 71 C7.52304687 71.62519531 7.04609375 72.25039063 6.5546875 72.89453125 C0.60520211 79.79406535 -10.89221934 85.96502493 -20 87 C-30.49035058 87.70159217 -40.47162377 87.971996 -50 83 C-50.87011719 82.55269531 -51.74023438 82.10539063 -52.63671875 81.64453125 C-64.7353888 74.89893495 -72.22671576 64.69569875 -76.30859375 51.4765625 C-78.3438263 41.24290731 -78.31414734 29.62386715 -74 20 C-73.67128906 19.25878906 -73.34257812 18.51757812 -73.00390625 17.75390625 C-66.73152538 5.23084825 -56.39953072 -3.09533367 -43.375 -7.9375 C-27.93962999 -11.95868863 -12.95475828 -8.87762623 0 0 Z " fill="#B80B50" transform="translate(431,777)"/>
<path d="M0 0 C8.1683203 7.41910076 13.35629023 18.80733015 14.21484375 29.734375 C14.65091021 43.20010741 10.91391665 53.74387831 2.26953125 64.06640625 C-5.71556318 72.52658639 -15.74910512 77.13148475 -27.33984375 78.3515625 C-41.5257733 78.72265697 -53.32106487 74.28885893 -63.6015625 64.609375 C-71.74000967 55.75516864 -75.75582558 44.89994976 -76.375 32.9375 C-75.17407921 20.32783175 -70.95302179 8.07946333 -61.29296875 -0.51953125 C-42.49013405 -15.64604796 -18.50925914 -15.34277213 0 0 Z " fill="#B6D70C" transform="translate(432,80)"/>
<path d="M0 0 C8.53459824 6.63802085 14.01370064 15.1800766 17.25 25.4375 C17.44207031 26.03433594 17.63414062 26.63117187 17.83203125 27.24609375 C20.27447917 40.05182539 17.86914363 52.21597358 10.90625 63.12109375 C4.63380226 71.89364448 -4.38089472 78.21671416 -14.86328125 80.96484375 C-28.30942496 83.16644509 -41.1920156 81.54309549 -52.625 73.75 C-62.3280956 66.09188821 -68.87250539 55.81363794 -70.75 43.4375 C-71.71246073 29.48181936 -68.71036067 17.77668927 -60 6.75 C-44.56001273 -10.30901407 -18.73142349 -12.49616882 0 0 Z " fill="#FDCE0E" transform="translate(188.75,743.5625)"/>
<path d="M0 0 C8.94297422 6.64699669 14.08993391 16.03781504 16.6875 26.75 C18.04543578 38.81805862 16.7128345 49.59692747 9.375 59.5625 C2.60628807 67.59050717 -5.68405026 73.87664015 -16.3125 75.75 C-30.60517779 76.66485136 -41.15233998 75.01416795 -52.80078125 66.0078125 C-61.0424312 58.59929979 -65.55974901 49.05246067 -66.69140625 38.07421875 C-67.12017864 24.53330997 -63.49791045 13.80794512 -54.3125 3.75 C-38.57884482 -10.28765586 -17.44895603 -11.31334389 0 0 Z " fill="#E40E5C" transform="translate(244.3125,7.25)"/>
<path d="M0 0 C9.88653263 6.65627939 16.04119901 16.26849505 18.375 27.9375 C19.32588545 41.26818253 16.75339649 53.59746711 8.1875 64.0625 C2.05222324 70.7210413 -4.92011287 74.64132898 -13.625 76.9375 C-14.45 77.164375 -15.275 77.39125 -16.125 77.625 C-28.21832177 79.13666522 -38.79248562 76.15672152 -48.625 68.9375 C-56.76305026 62.17006873 -62.61277476 53.63201494 -63.86230469 42.89916992 C-64.68441124 29.83697695 -63.12322126 18.8109508 -54.375 8.5 C-39.32849139 -6.79439178 -18.88469619 -10.9987791 0 0 Z " fill="#017B98" transform="translate(63.625,594.0625)"/>
<path d="M0 0 C9.12411714 7.09653555 14.05894032 14.88213601 16.8125 26.1875 C18.09738725 39.8730433 15.3751463 49.88982865 7.01171875 60.7421875 C-0.47792568 69.06992713 -11.68979354 73.66134516 -22.75 74.4375 C-34.01122829 74.20465505 -44.36339098 70.11986383 -52.2890625 62.046875 C-60.9584379 51.49606068 -63.19424361 40.64383363 -62.1875 27.1875 C-60.57208786 19.3873671 -57.61333247 13.01479541 -52.1875 7.1875 C-51.55070312 6.49785156 -50.91390625 5.80820312 -50.2578125 5.09765625 C-36.18210115 -8.74603788 -16.53909963 -9.40458607 0 0 Z " fill="#B70C50" transform="translate(504.1875,697.8125)"/>
<path d="M0 0 C8.8598121 6.23530173 14.76043161 14.55451053 17.37890625 25.16015625 C19.14411987 36.73413418 16.89476266 47.4609536 10.54296875 57.29296875 C3.9166335 66.02175173 -5.33647274 71.95372276 -16.2421875 73.64453125 C-26.82880772 74.58180822 -36.3570537 72.7959847 -45.0546875 66.45703125 C-52.93153316 59.78101143 -58.53545685 51.92943858 -60.2421875 41.64453125 C-61.14081072 29.84457711 -59.75609559 18.87361639 -52 9.51953125 C-38.03601438 -5.37538675 -18.5337758 -11.20421638 0 0 Z " fill="#E30E5C" transform="translate(152.2421875,70.35546875)"/>
<path d="M0 0 C7.73057419 5.29599663 12.87948802 13.43621695 15.52734375 22.39453125 C17.51662246 33.36022462 16.41720614 43.61620868 10.6796875 53.20703125 C4.15168733 62.53529379 -3.88759762 68.24928484 -15 71 C-26.95467001 72.40643177 -37.34688219 70.35475642 -47 63 C-47.825 62.443125 -48.65 61.88625 -49.5 61.3125 C-57.85655513 53.5826865 -61.49361152 43.46923003 -62.25 32.3125 C-62.07101621 21.89166604 -57.81377286 11.8370153 -50.75 4.25 C-36.38550237 -9.15272781 -16.22425864 -10.68717221 0 0 Z " fill="#FDCE0E" transform="translate(288,734)"/>
<path d="M0 0 C8.67819784 6.20966453 14.74597749 14.6368857 16.9921875 25.1328125 C18.70548846 36.7916166 16.26836382 47.47722727 9.625 57.25 C2.29828515 66.57120945 -6.91407561 70.75434529 -18.5 72.1875 C-28.95385408 72.81260323 -37.614308 69.89238481 -45.6875 63.3125 C-46.32558594 62.79816406 -46.96367187 62.28382813 -47.62109375 61.75390625 C-54.40874324 55.66691736 -58.31076947 46.85229155 -58.92578125 37.80859375 C-59.25140694 25.9765537 -57.52579674 16.69898385 -49.65625 7.37890625 C-36.29855812 -6.64136956 -16.82948479 -10.43314344 0 0 Z " fill="#25BEE5" transform="translate(531.6875,253.6875)"/>
<path d="M0 0 C8.49683401 6.25103782 14.02939664 14.11786717 16.3828125 24.45703125 C17.59204809 35.29079502 15.91040835 44.67003951 9.6953125 53.70703125 C2.28703985 62.70015825 -6.52053202 67.17826818 -18.0625 68.80078125 C-27.92531009 69.22498814 -37.11962372 65.73570942 -44.6171875 59.45703125 C-53.3088708 51.14399554 -56.92124002 42.47277752 -57.6171875 30.45703125 C-57.05956399 19.73350212 -52.68646271 10.52114206 -44.859375 3.2109375 C-31.55106008 -7.19922522 -14.64610014 -8.63464113 0 0 Z " fill="#B6D70C" transform="translate(315.6171875,92.54296875)"/>
<path d="M0 0 C7.77504271 6.54740439 12.65767791 16.2678137 13.9453125 26.29296875 C14.32527936 36.08344806 11.53069136 44.90213506 5.32421875 52.53125 C2.11652501 55.77450576 -1.46252478 58.10875726 -5.4375 60.3125 C-6.02917969 60.65410156 -6.62085938 60.99570312 -7.23046875 61.34765625 C-15.06621218 65.06660732 -26.75449013 64.65450341 -34.8125 61.875 C-44.85202911 57.09265674 -51.25085001 49.2007219 -55.1875 39.0625 C-58.15784941 29.44966593 -56.77728342 19.74236341 -52.18359375 10.8984375 C-46.53428093 1.69329018 -38.11770287 -3.43963574 -27.875 -6.4375 C-18.00362744 -7.44994847 -8.33797717 -5.74536239 0 0 Z " fill="#FDCE0E" transform="translate(365.4375,691.6875)"/>
<path d="M0 0 C6.59939782 5.43693509 11.08768532 13.44911954 12.27050781 21.94238281 C13.2507857 33.34975067 11.1180753 43.094802 3.8125 52.1171875 C-3.47608497 59.6885193 -12.09099236 63.73010805 -22.6328125 64.08984375 C-32.19923661 63.50506234 -40.12153759 59.85876443 -47.0234375 53.26171875 C-53.88850444 45.40623701 -56.51997047 35.24090329 -55.875 24.9375 C-54.62730608 15.70456502 -50.67549822 6.73623819 -43.3125 0.875 C-29.58369511 -8.88372138 -14.19913829 -9.52864347 0 0 Z " fill="#B70C50" transform="translate(538,611)"/>
<path d="M0 0 C8.73473368 6.10658372 13.27462488 13.49801446 15.55859375 23.84765625 C17.0652837 34.6078225 14.32242642 43.35624701 8.3125 52.1875 C3.36983555 58.43741828 -4.14370653 63.37502306 -12 65 C-21.87264629 66.03990163 -30.5478828 64.89994077 -38.73046875 59.046875 C-45.08259191 53.6799408 -50.48611699 47.40056652 -52 39 C-52.84427731 26.58497142 -52.1475041 16.53374613 -43.8125 6.625 C-32.66053357 -4.95022588 -14.19169361 -8.63731442 0 0 Z " fill="#E30F5C" transform="translate(75,146)"/>
<path d="M0 0 C7.90108846 8.19924275 11.37944553 16.97581607 11.2109375 28.31640625 C10.56027619 36.59426407 7.54674557 42.90871092 2 49 C1.43539062 49.63035156 0.87078125 50.26070312 0.2890625 50.91015625 C-5.79600641 56.95671207 -13.43679382 59.7068139 -21.96484375 60.15625 C-32.03212734 59.59146551 -40.26406722 55.4860039 -47 48 C-53.32889463 38.92430085 -55.44880681 29.25454637 -53.53515625 18.3515625 C-51.1882303 9.32492423 -45.6611738 2.25828018 -38 -3 C-25.33034336 -10.04369898 -11.40033135 -9.27016563 0 0 Z " fill="#027B98" transform="translate(145,640)"/>
<path d="M0 0 C4.69655314 3.35231001 7.54088786 7.33014695 10.25 12.375 C10.5903125 12.98988281 10.930625 13.60476562 11.28125 14.23828125 C14.94299164 22.15510229 14.32409836 32.04190876 11.75 40.1875 C7.94151866 49.26103974 1.27185632 55.57632365 -7.75 59.375 C-15.87387301 62.03088156 -25.58910518 61.44428054 -33.25 57.875 C-38.53046952 54.86875692 -42.24875367 51.30763821 -45.75 46.375 C-46.348125 45.55 -46.94625 44.725 -47.5625 43.875 C-51.67172222 35.22400586 -52.13572741 25.74477163 -49.125 16.6875 C-45.48868414 7.79309675 -40.3353716 1.80571428 -31.75 -2.625 C-20.53814404 -7.16803032 -10.36084314 -6.27929888 0 0 Z " fill="#E30F5C" transform="translate(51.75,234.625)"/>
<path d="M0 0 C7.07188974 4.94358769 13.13904996 12.10783768 14.80078125 20.74609375 C15.8301005 32.09402084 14.84857316 41.14004184 7.48828125 50.05859375 C0.77856614 57.12445085 -6.67516895 61.71700972 -16.63671875 62.12109375 C-25.72366173 61.77159594 -32.98081918 58.45005435 -39.76171875 52.49609375 C-46.47246607 44.92499421 -49.74248216 37.27134703 -49.4453125 27.09765625 C-48.42550647 17.35284311 -44.13980359 8.67049099 -36.51171875 2.43359375 C-25.18067122 -5.32947126 -12.13298569 -6.9177414 0 0 Z " fill="#B80C51" transform="translate(518.19921875,519.25390625)"/>
<path d="M0 0 C7.32482693 5.18097515 11.17087209 10.51261627 14 19 C14.27879899 22.20330421 14.27751327 25.41088553 14.3125 28.625 C14.34150391 29.48996094 14.37050781 30.35492188 14.40039062 31.24609375 C14.49120168 40.56470478 11.22293753 47.48365131 4.93359375 54.2734375 C-2.35743365 60.78380944 -10.74730535 61.46158465 -20.1640625 61.27734375 C-27.65919955 60.73543466 -33.94550586 57.95859741 -39.46484375 52.84375 C-47.18423913 43.57261865 -48.03640093 32.54443325 -47 21 C-45.29018395 12.87104597 -41.73712006 6.16357235 -34.75390625 1.5 C-24.78750703 -4.26054602 -10.38160259 -5.89013126 0 0 Z " fill="#E30F5C" transform="translate(1478,125)"/>
<path d="M0 0 C6.35020201 4.91900118 10.9571168 11.70590471 12.12597656 19.75683594 C12.85533547 28.39552415 12.92892499 37.25138634 7.8125 44.59765625 C7.34972656 45.28988281 6.88695312 45.98210937 6.41015625 46.6953125 C1.13250198 53.5988456 -6.11330977 57.86876705 -14.72265625 59.10546875 C-24.49456736 59.42446476 -33.27293163 57.33268389 -40.5859375 50.57421875 C-47.62012765 41.89299871 -49.96938934 32.48618934 -49.1875 21.59765625 C-47.69347721 13.08932305 -43.79472689 5.10109827 -36.875 -0.27734375 C-25.12160061 -7.69379009 -11.63361482 -7.45797807 0 0 Z " fill="#25BEE5" transform="translate(1633.1875,127.40234375)"/>
<path d="M0 0 C7.57665288 6.66222926 11.46902254 15.23003742 12.25 25.1875 C11.62521822 34.71542215 8.06191382 43.10895247 1.1484375 49.7890625 C-7.04562146 56.41613011 -15.63253068 57.95892142 -26 57 C-34.10426293 55.78042645 -39.62612478 50.9731203 -45 45 C-50.5405143 36.68922855 -51.27847566 27.12912697 -49.5390625 17.4296875 C-46.71169476 7.88316347 -40.61252481 1.70318746 -32 -3 C-21.09905732 -7.67648812 -9.83182461 -6.76147665 0 0 Z " fill="#25BEE4" transform="translate(457,214)"/>
<path d="M0 0 C7.60571573 5.01413852 12.06462494 12.15853838 14 21 C15.08517453 29.82521456 13.4005908 37.82863523 8.4921875 45.29296875 C3.05182101 52.03649279 -4.43653802 56.52354104 -13 58 C-21.69046809 58.10598132 -28.3340364 55.82128032 -35.6875 51.375 C-42.41640263 44.46423514 -45.54665154 36.62152092 -46.3125 27.125 C-46.03277984 17.65181064 -42.16929855 9.84120365 -35.375 3.375 C-24.51398151 -5.69596174 -12.45719128 -6.19038339 0 0 Z " fill="#E30F5C" transform="translate(60,318)"/>
<path d="M0 0 C7.75466171 4.4200264 13.1615283 10.64847883 15.92578125 19.20703125 C17.53487194 27.91221187 16.96446973 36.68234301 12.31640625 44.3203125 C7.14019154 50.92800252 1.19210039 54.69508112 -6.68359375 57.3203125 C-17.72659973 58.2650858 -25.90980806 56.68988356 -34.55859375 49.6328125 C-40.74552234 43.78474396 -43.73117453 36.2212844 -43.99609375 27.7578125 C-43.86739692 19.01929743 -40.76790987 11.38240547 -34.75390625 5.04296875 C-24.81786558 -3.22456698 -11.81217495 -5.42260359 0 0 Z " fill="#B6D70C" transform="translate(236.68359375,149.6796875)"/>
<path d="M0 0 C6.35261697 4.37273826 11.07940177 10.42221834 13.16796875 17.90625 C14.59760485 26.76999382 13.29803969 34.04944933 9.10546875 41.96875 C3.01680143 49.37388593 -2.98813345 53.84373081 -12.61328125 55.09375 C-21.52580412 55.54501698 -29.27610831 52.73486458 -36.14453125 47.09375 C-42.38962862 41.10560655 -44.79204097 34.07237609 -45.45703125 25.59375 C-44.83723399 16.14184173 -41.51960738 8.78132165 -34.61328125 2.28125 C-24.47210311 -5.75515532 -11.15306363 -6.15885992 0 0 Z " fill="#FCCE0F" transform="translate(406.20703125,633.21875)"/>
<path d="M0 0 C7.73879297 4.06710288 11.66870207 9.25436159 15.3125 17.0625 C16.93499519 24.58497771 16.99672984 32.48630335 13 39.25 C7.94045173 46.25194956 2.72087743 50.57559685 -5.5625 53 C-15.14809891 53.98313835 -22.6704461 52.04170363 -30.2109375 45.98828125 C-35.71534356 40.64011379 -38.9542498 33.71743917 -39.375 26.0625 C-39.21563843 19.33516519 -36.70837109 13.20679611 -33.375 7.4375 C-24.20369832 -1.00975155 -11.96742715 -5.13753186 0 0 Z " fill="#B6D60C" transform="translate(189,215.75)"/>
<path d="M0 0 C6.64236267 4.41573262 10.24330573 11.05412332 11.82421875 18.81640625 C12.52934244 26.85481632 10.49127758 34.80855596 5.44921875 41.25390625 C-0.70706108 47.26360799 -6.44530877 49.8665784 -14.98828125 50.19140625 C-22.70123385 50.02912878 -28.24649841 47.83711418 -33.98828125 42.69140625 C-38.86919087 37.36780948 -41.32167325 31.07529463 -41.67578125 23.87890625 C-41.31250804 16.42594615 -39.07015133 9.38820877 -33.92578125 3.87890625 C-23.85880005 -5.1489027 -11.8596424 -6.45147513 0 0 Z " fill="#25BEE4" transform="translate(376.17578125,213.18359375)"/>
<path d="M0 0 C4.63622389 6.01245035 7.32807067 11.49449618 6.765625 19.21875 C5.39023548 27.97122878 3.62033984 35.66895861 -3.75390625 41.3515625 C-10.72563695 46.01757404 -17.11803686 47.70745974 -25.4765625 46.6015625 C-32.5642694 44.91192339 -37.99103339 41.07072086 -42 35 C-46.29966444 26.83912374 -47.38937635 19.30902447 -44.9375 10.375 C-42.01691727 2.68639617 -36.44561926 -2.47301633 -29.1796875 -6.09375 C-19.20804167 -10.23966726 -7.69644344 -7.29294058 0 0 Z " fill="#E30F5C" transform="translate(115,370)"/>
<path d="M0 0 C6.99006896 3.24500918 11.82919148 7.76473565 15.00390625 14.81640625 C17.33797083 21.97142566 17.2534392 30.42161512 14.16015625 37.32421875 C10.06322735 44.49384433 4.06874313 49.3216303 -3.88671875 51.7421875 C-11.44114493 53.21440835 -18.24378436 52.08185124 -24.87109375 48.12890625 C-31.05240504 42.98479804 -34.83814174 37.15230092 -35.87109375 29.12890625 C-36.09172794 21.94826628 -34.72196891 16.18226036 -30.87109375 10.12890625 C-30.03578125 8.79859375 -30.03578125 8.79859375 -29.18359375 7.44140625 C-21.35111516 -0.39107234 -10.65795969 -3.23363947 0 0 Z " fill="#B70D51" transform="translate(461.87109375,475.87109375)"/>
<path d="M0 0 C5.23394867 4.48313275 9.02535154 10.30853334 10.40234375 17.11328125 C10.96939702 25.12117987 8.99434227 32.14780428 4.18359375 38.5390625 C-0.79920222 44.18222902 -7.19673716 46.14467539 -14.4375 47.375 C-21.47555046 47.66919504 -27.92991821 45.57308928 -33.1640625 40.80078125 C-39.10380446 34.29047294 -40.98046506 28.05033255 -40.71875 19.3046875 C-40.01689631 11.99371153 -37.04587847 6.17717407 -31.4375 1.375 C-21.5069885 -4.78382684 -10.26516953 -7.16220003 0 0 Z " fill="#25BEE4" transform="translate(317.4375,242.625)"/>
<path d="M0 0 C5.38123651 4.22893747 7.8824953 9.35842341 10.01171875 15.74609375 C10.82788843 24.65706107 9.88701246 31.43862628 4.57421875 38.71484375 C-0.76440961 44.77213362 -7.72683651 47.23178145 -15.61328125 48.18359375 C-24.60750799 47.01767547 -30.59627202 44.08032776 -36.23828125 36.87109375 C-39.83795069 30.44311261 -40.8784404 24.01201782 -39.98828125 16.74609375 C-38.00836911 9.85014976 -34.10234309 3.35907897 -27.96484375 -0.5390625 C-18.6540503 -5.3675223 -9.08792234 -5.73128305 0 0 Z " fill="#027B97" transform="translate(213.98828125,644.25390625)"/>
<path d="M0 0 C6.82611889 4.1357408 10.95237101 9.79490625 13.5 17.3125 C14.90420398 26.60929878 12.60338581 33.25513053 7.8125 41.0625 C1.65956129 47.04914307 -5.58972241 49.69532033 -14.05859375 49.59765625 C-20.12279648 48.88935737 -26.3274826 45.71682392 -30.5 41.3125 C-34.88485864 33.86322311 -37.97768796 26.88646612 -36.00390625 18.10546875 C-33.51125831 9.83889054 -29.83238651 4.64398001 -22.3671875 0.2578125 C-15.83528328 -3.04913483 -6.62018801 -3.13920961 0 0 Z " fill="#027B97" transform="translate(269.5,615.6875)"/>
<path d="M0 0 C6.18544403 5.14754749 9.9402234 10.97773762 11 19 C11.25682569 26.69309694 9.37831762 33.11454463 4.30859375 38.9453125 C-1.14882587 44.21530559 -6.96807627 46.82464508 -14.578125 47.08984375 C-22.49371991 46.61636491 -28.34098458 44.05873586 -33.8125 38.3125 C-38.00369743 33.16440817 -39.67433014 28.03958533 -40.375 21.5 C-39.45204397 12.88574373 -36.44980754 6.85382943 -30 1 C-20.69840841 -5.71889497 -9.80794367 -5.85007572 0 0 Z " fill="#B7D60C" transform="translate(182,287)"/>
<path d="M0 0 C6.67921849 3.71506827 11.58226124 8.79793055 13.98046875 16.1015625 C15.73846332 22.84054167 14.92879348 28.80977674 11.98046875 35.1015625 C7.63930107 41.75649237 2.306328 45.86058559 -5.43359375 47.6640625 C-13.03055901 48.79302328 -18.6196015 46.9322939 -25.26953125 43.3515625 C-30.23932104 39.28537085 -33.65182675 34.44273792 -35.01953125 28.1015625 C-35.81184003 19.71157843 -34.55693451 13.0570923 -29.33203125 6.3515625 C-21.86679116 -1.8228754 -10.15339599 -4.33697953 0 0 Z " fill="#FBCD0F" transform="translate(398.01953125,567.8984375)"/>
<path d="M0 0 C4.75826109 2.80830703 7.92906189 7.18242073 10.4921875 11.98828125 C11.57528476 18.89302628 11.09950337 25.05358529 7.4296875 31.11328125 C3.4112691 36.48719485 -1.07167666 38.36018796 -7.3828125 40.11328125 C-13.28599087 40.21506019 -18.50543735 39.26416051 -23.1328125 35.40234375 C-27.57740432 30.56885015 -29.71005904 26.39151865 -30.3203125 19.80078125 C-29.70495802 12.66266925 -27.2450434 7.18530646 -22.0078125 2.17578125 C-14.78581166 -2.19542978 -7.91883333 -3.2507273 0 0 Z " fill="#25BCE2" transform="translate(288.0078125,293.82421875)"/>
<path d="M0 0 C4.46372055 3.60347462 7.7784775 8.81875848 8.82421875 14.47265625 C9.25232467 20.03803326 8.67357549 24.66082865 5.82421875 29.47265625 C0.62682816 35.21003547 -4.20456704 38.45669344 -11.98828125 38.84765625 C-17.87884194 38.70740481 -22.32839482 37.05196813 -26.7109375 33.08203125 C-30.54114446 28.83865328 -31.96001573 24.75977077 -32.48828125 19.16015625 C-31.90309668 12.25497833 -30.54722508 7.2965515 -25.30078125 2.53515625 C-17.72816125 -3.39124201 -8.68627105 -4.91575989 0 0 Z " fill="#037B97" transform="translate(292.17578125,572.52734375)"/>
<path d="M0 0 C4.33525822 4.25627578 6.4342934 8.22111176 6.6484375 14.32421875 C6.27168246 20.79845665 4.76465614 26.94272945 -0.15234375 31.4453125 C-6.32535926 36.01308296 -11.8772513 36.4715763 -19.4375 35.875 C-25.23158783 33.83633947 -28.84810881 30.23168349 -32.25 25.1875 C-34.52761067 18.83416497 -34.29445376 11.98551974 -31.60546875 5.76171875 C-28.58126375 0.87646452 -24.06166514 -2.93624457 -18.5625 -4.6875 C-11.64103606 -5.88179182 -5.46930197 -4.38547699 0 0 Z " fill="#B6D60C" transform="translate(205.4375,353.125)"/>
<path d="M0 0 C5.30076899 3.91247235 9.25292385 8.35153447 10.625 14.9375 C11.22746694 21.56463636 9.43318029 26.05780547 5.9375 31.625 C1.5102685 36.0522315 -3.09468669 38.15730141 -9.375 38.4375 C-15.48664388 38.12816833 -19.98279215 36.5433909 -24.16796875 31.984375 C-27.87441838 26.9485337 -29.85741728 22.24258171 -29.375 15.9375 C-27.94168839 9.13238573 -24.41345483 4.16075963 -18.8125 0.0625 C-12.62031069 -1.96403468 -6.21340645 -1.9560724 0 0 Z " fill="#FBCD0F" transform="translate(376.375,521.0625)"/>
<path d="M0 0 C5.20391343 4.35676473 7.44928925 7.94573551 8.5625 14.625 C8.83222928 20.28931486 6.77695353 25.12062082 3.4375 29.625 C-0.86997698 33.73668257 -4.97571878 35.3870458 -10.875 35.625 C-16.71171553 35.37768155 -20.50617687 33.33179159 -24.5625 29.1875 C-27.94515883 24.94801993 -29.19713171 20.64758782 -29.3125 15.25 C-28.37309704 9.20139523 -26.11702892 5.13938055 -21.3125 1.25 C-14.406375 -3.46637805 -7.45769716 -3.93991548 0 0 Z " fill="#E2105C" transform="translate(149.3125,406.75)"/>
<path d="M0 0 C4.35229449 3.6011893 6.64492562 7.82444035 7.50390625 13.39453125 C7.78587431 19.31586058 6.76285818 24.1786739 3.125 28.9375 C-1.93587932 33.56130338 -6.62613658 35.32934959 -13.46484375 35.20703125 C-18.35316058 34.66036373 -22.09464528 32.85480508 -25.44921875 29.2421875 C-29.42399311 23.61600259 -30.65483837 17.51905044 -29.5 10.734375 C-27.83542858 5.28290359 -24.57386541 2.02619385 -19.875 -1.0625 C-13.63541692 -4.25162024 -5.92264587 -3.77011436 0 0 Z " fill="#B90E51" transform="translate(419.875,452.0625)"/>
<path d="M0 0 C4.46385777 3.95660121 6.4099548 8.05718363 7.25 13.9375 C6.52638415 19.00281092 5.06478053 23.24551949 1.27734375 26.83203125 C-3.49847003 30.02719745 -8.66958094 30.35065948 -14.25 29.4375 C-19.56565158 26.77967421 -23.35236008 23.13041975 -25.25 17.4375 C-25.83226942 11.49835195 -24.66188982 7.25182307 -21.25 2.4375 C-14.40191596 -3.12656828 -7.97553902 -3.83439376 0 0 Z " fill="#FBCE10" transform="translate(357.25,482.5625)"/>
<path d="M0 0 C4.23330038 3.42906168 6.53387972 6.35219406 7.1796875 11.8671875 C7.48294482 17.36257767 6.62706909 20.47320772 2.93359375 24.765625 C-2.05989206 29.16464821 -4.97429787 30.11693418 -11.5234375 30.05078125 C-16.16862397 29.52989244 -18.88785691 27.10673287 -21.87890625 23.703125 C-24.74339234 19.0294898 -24.5340625 14.0713977 -24.06640625 8.765625 C-22.01218161 3.79223903 -18.38423158 1.11768978 -13.81640625 -1.546875 C-8.96678542 -2.75928021 -4.36479748 -2.60732704 0 0 Z " fill="#B7D60D" transform="translate(225.06640625,397.234375)"/>
<path d="M0 0 C3.43658628 3.43658628 4.41514839 6.22710121 4.4375 11.0625 C4.33911578 15.24997816 3.91956562 17.84861272 1.125 21.125 C-3.59853801 25.27249679 -6.36766913 26.4858258 -12.5546875 26.40625 C-17.15488387 25.84865044 -19.87167508 23.37050679 -22.6875 19.875 C-24.58209943 15.48750658 -25.59297861 11.59753883 -24.25 6.97265625 C-22.10612091 2.17572679 -19.61865753 -0.40434504 -14.875 -2.875 C-9.45766259 -4.66261235 -4.60731375 -3.00476983 0 0 Z " fill="#037B97" transform="translate(304.875,537.875)"/>
<path d="M0 0 C3.27921365 2.82376731 5.03365302 5.78464671 6.25 9.9375 C6.53293504 15.09034724 5.7355422 20.00221042 2.25 23.9375 C-1.73271412 26.87065181 -5.40030498 28.29411204 -10.375 28 C-15.10901552 27.19055693 -17.49268537 25.43315473 -20.75 21.9375 C-23.15353522 17.89519077 -23.43228865 13.53857477 -22.75 8.9375 C-21.32378856 4.47833258 -19.05171222 1.76643694 -15 -0.5625 C-9.62248715 -2.89575977 -5.4330053 -2.09911568 0 0 Z " fill="#25BCE1" transform="translate(272.75,341.0625)"/>
<path d="M0 0 C3.7013603 3.43697742 5.46414601 6.5957462 5.75390625 11.71484375 C5.52213132 15.93595689 4.97788489 17.98924081 2.3125 21.375 C-2.03709153 24.71305861 -4.66583054 25.91261647 -10.34765625 25.75390625 C-14.78743123 25.06099339 -17.54547802 22.52445984 -20.1875 19.0625 C-22.27565232 14.44658434 -22.7896893 11.70339364 -21.1875 6.8125 C-16.59131713 -1.74590949 -8.81692674 -4.08191053 0 0 Z " fill="#F9CC11" transform="translate(322.375,461.5625)"/>
<path d="M0 0 C3.17483358 3.26821104 4.42001882 6.00357256 4.5 10.5625 C4.37957126 15.138792 3.25161259 17.7317703 0.125 21.1875 C-4.18568676 24.29520441 -7.65660749 24.61352899 -12.7578125 23.83203125 C-16.80197423 22.60087501 -18.90830325 19.80421697 -21.0078125 16.29296875 C-22.5488926 12.55133734 -21.90527849 9.02279475 -20.875 5.1875 C-19.07700033 1.90389443 -16.75509882 -0.26541154 -13.5625 -2.25 C-8.47880868 -3.31402842 -4.4053884 -2.77731008 0 0 Z " fill="#B70F51" transform="translate(373.875,441.8125)"/>
<path d="M0 0 C2.9576473 2.29217666 3.81597278 3.44791835 5 7 C5.49007463 11.06761945 5.92506284 15.18317658 4.0234375 18.91796875 C1.78329898 21.70096292 -0.55974796 23.98816117 -4 25 C-9.01597611 25.45599783 -12.00671602 25.12987123 -16 22 C-18.55599843 19.72032573 -19.82235682 18.07303656 -20.38671875 14.6640625 C-20.57359442 10.37236615 -20.23105977 7.5083315 -18.4375 3.5625 C-12.83109329 -2.33141474 -7.2730452 -2.89796385 0 0 Z " fill="#E1115A" transform="translate(190,427)"/>
<path d="M0 0 C2.91935191 2.43279326 4.0247927 4.26744516 5.25 7.875 C5.45864764 12.13141192 4.71797357 15.10618628 2.5 18.75 C-1.06058801 22.11277757 -3.34645986 22.90006322 -8.25 22.8125 C-12.53101067 21.66580071 -14.07748579 20.38744725 -16.75 16.875 C-18.67584234 12.54185473 -19.0049561 10.68012453 -17.5625 6.125 C-13.62188331 -0.94093338 -7.8990747 -3.23143965 0 0 Z " fill="#F8CC11" transform="translate(289.75,442.125)"/>
<path d="M0 0 C3.04247152 2.69476049 4.02367886 5.05809622 5.1875 8.9375 C5.1875 13.50127786 4.71798428 15.31180059 1.75 18.8125 C-2.36437807 22.22442328 -5.59516736 22.33165237 -10.8125 21.9375 C-13.8396228 21.03754457 -14.62598443 20.19309542 -16.5 17.625 C-18.65930869 13.2035584 -19.20135074 10.51747928 -17.6875 5.8125 C-16.55947236 3.13153744 -15.81722726 1.94182207 -13.625 -0.0625 C-8.83934374 -1.76406667 -4.75881536 -1.79777469 0 0 Z " fill="#B6D50F" transform="translate(256.8125,425.0625)"/>
<path d="M0 0 C2.98151351 1.82956511 4.62371918 3.3500604 6.375 6.375 C7.17298003 9.72651613 7.03027506 11.70311982 6 15 C3.36644356 18.4855894 1.71764175 19.7949595 -2.5 21 C-6.48112565 21 -7.96510436 20.5290797 -11 18 C-13.54357983 14.94770421 -14.00903645 13.50604099 -13.9375 9.5 C-12.91988128 5.7008901 -11.76506348 3.76506348 -9 1 C-5.66660588 -0.11113137 -3.49519344 -0.34951934 0 0 Z " fill="#057A97" transform="translate(300,502)"/>
<path d="M0 0 C3.19124462 2.48207915 4.72717283 4.12695307 5.9375 8 C6.03395399 12.62979174 4.99631034 14.91577993 1.875 18.3125 C-2.18194415 20.69374982 -4.32709654 20.59338457 -9 20 C-11.375 18.25 -11.375 18.25 -13 16 C-13.433125 15.401875 -13.86625 14.80375 -14.3125 14.1875 C-15.38311687 10.78099179 -14.90203846 8.42774617 -14 5 C-9.71472758 -0.18743504 -6.58207077 -1.84297981 0 0 Z " fill="#24BBDF" transform="translate(267,381)"/>
<path d="M0 0 C2.08447917 1.56576085 2.87209036 2.59099551 3.65234375 5.0859375 C4.42584642 11.29515075 4.42584642 11.29515075 2.1875 15 C-0.58722417 17.53689067 -1.53100959 17.94690675 -5.3125 18.375 C-9 18 -9 18 -11.9375 16 C-14.2472973 12.64029484 -14.68169593 10.91074695 -14.43359375 6.93359375 C-13.75194607 3.89381354 -12.19767713 2.13303956 -10 0 C-6.81791464 -1.59104268 -3.34332953 -0.92686363 0 0 Z " fill="#B71051" transform="translate(333,438)"/>
<path d="M0 0 C3.15850062 2.75356464 3.90662809 4.34639662 4.5 8.5 C3.90211554 12.6851912 3.22291569 14.26052166 0 17 C-3.6067138 18.13079347 -6.75976174 18.39165419 -10.375 17.25 C-12 16 -12 16 -14 13 C-14.66923077 6.08461538 -14.66923077 6.08461538 -12.1875 2.0625 C-8.25001223 -1.64998847 -5.05313156 -1.24112003 0 0 Z " fill="#E1115C" transform="translate(225,436)"/>
<path d="M0 0 C2.58094937 2.82291337 3.01389559 4.30522028 2.9375 8.125 C2 11 2 11 0.375 12.9375 C-3.1457671 14.51258002 -5.34234182 14.06404602 -9 13 C-11.58094937 10.17708663 -12.01389559 8.69477972 -11.9375 4.875 C-11 2 -11 2 -9.375 0.0625 C-5.8542329 -1.51258002 -3.65765818 -1.06404602 0 0 Z " fill="#067B96" transform="translate(297,476)"/>
<path d="M0 0 C2.26075813 1.61482724 2.91195077 2.76100922 3.875 5.375 C4.0376843 8.79137035 3.02489572 10.30013904 1 13 C-1.87470493 14.43735246 -3.81894588 14.38172649 -7 14 C-9.4375 11.9375 -9.4375 11.9375 -11 9 C-11.0625 5.375 -11.0625 5.375 -10 2 C-6.60539102 -1.0174302 -4.26129477 -1.5699507 0 0 Z " fill="#25B6DB" transform="translate(271,414)"/>
<path d="M0 0 C2.5625 2.0625 2.5625 2.0625 3.5625 4.0625 C0.51407135 4.97151939 -2.03411636 5.12423367 -5.203125 4.94140625 C-6.09257812 4.89306641 -6.98203125 4.84472656 -7.8984375 4.79492188 C-8.81882812 4.73884766 -9.73921875 4.68277344 -10.6875 4.625 C-11.62335938 4.57279297 -12.55921875 4.52058594 -13.5234375 4.46679688 C-15.82848887 4.33743175 -18.13307289 4.20247966 -20.4375 4.0625 C-20.4375 3.0725 -20.4375 2.0825 -20.4375 1.0625 C-13.7726478 -3.75100437 -7.15433878 -4.0324455 0 0 Z " fill="#F2C40E" transform="translate(357.4375,482.9375)"/>
<path d="M0 0 C2.84826499 2.84826499 2.71429645 5.34898476 3.03125 9.265625 C2.95734072 15.7326872 0.58616893 21.41383107 -4 26 C-4.66 26 -5.32 26 -6 26 C-6 25.34 -6 24.68 -6 24 C-5.34 24 -4.68 24 -4 24 C-3.87625 23.484375 -3.7525 22.96875 -3.625 22.4375 C-3.12033501 20.46930655 -2.5675597 18.51348647 -2 16.5625 C-0.21785825 10.28950523 -0.21785825 10.28950523 -1 4 C-0.5625 1.75 -0.5625 1.75 0 0 Z " fill="#BFD815" transform="translate(209,359)"/>
<path d="M0 0 C4.51478398 0.53115106 7.34666857 2.36620292 11 5 C10.34 6.32 9.68 7.64 9 9 C8.01 9 7.02 9 6 9 C5.896875 8.360625 5.79375 7.72125 5.6875 7.0625 C5.3471875 6.0415625 5.3471875 6.0415625 5 5 C4.01 4.67 3.02 4.34 2 4 C0.8125 1.9375 0.8125 1.9375 0 0 Z " fill="#F6C60D" transform="translate(399,631)"/>
<path d="M0 0 C0 0.33 0 0.66 0 1 C-1.670625 1.2165625 -1.670625 1.2165625 -3.375 1.4375 C-6.82142047 1.78372035 -6.82142047 1.78372035 -9 3 C-10.88484944 2.75378093 -12.76022087 2.43111913 -14.625 2.0625 C-15.62789063 1.86785156 -16.63078125 1.67320312 -17.6640625 1.47265625 C-18.43492187 1.31667969 -19.20578125 1.16070313 -20 1 C-13.98824959 -2.50454574 -6.58684402 -1.38670401 0 0 Z " fill="#E8CB13" transform="translate(276,728)"/>
<path d="M0 0 C0.33 0.66 0.66 1.32 1 2 C0.401875 2.33 -0.19625 2.66 -0.8125 3 C-3.89928188 5.82220057 -4.76988723 9.07668579 -6 13 C-6.99 13 -7.98 13 -9 13 C-8.68033924 7.72559742 -5.60963971 4.56176651 -2 1 C-1.34 0.67 -0.68 0.34 0 0 Z " fill="#B6C918" transform="translate(182,351)"/>
<path d="M0 0 C0 0.33 0 0.66 0 1 C-3.3 1.33 -6.6 1.66 -10 2 C-10 2.66 -10 3.32 -10 4 C-13.63 4.33 -17.26 4.66 -21 5 C-14.3360049 0.5573366 -7.88427144 -0.3754415 0 0 Z " fill="#2BB3CF" transform="translate(514,248)"/>
<path d="M0 0 C0.33 0 0.66 0 1 0 C1.19600577 2.22843488 1.38146569 4.45779893 1.5625 6.6875 C1.66691406 7.92886719 1.77132813 9.17023437 1.87890625 10.44921875 C1.98493841 13.55835533 1.77228525 16.00810972 1 19 C-0.95294291 15.72708382 -1.24471499 13.28659202 -1.1875 9.5 C-1.18105469 8.5615625 -1.17460937 7.623125 -1.16796875 6.65625 C-1.01857816 4.29379415 -0.66710889 2.26283335 0 0 Z " fill="#E8C919" transform="translate(310,711)"/>
<path d="M0 0 C0.66 0.33 1.32 0.66 2 1 C1.34 2.65 0.68 4.3 0 6 C-0.66 6 -1.32 6 -2 6 C-3.38938077 7.96147874 -4.7260411 9.96166576 -6 12 C-6.66 11.67 -7.32 11.34 -8 11 C-7.04454634 9.53977837 -6.08553322 8.08188532 -5.125 6.625 C-4.59132813 5.81289062 -4.05765625 5.00078125 -3.5078125 4.1640625 C-2 2 -2 2 0 0 Z " fill="#20ABCA" transform="translate(286,244)"/>
<path d="M0 0 C0.66 0 1.32 0 2 0 C2 0.66 2 1.32 2 2 C4.64 1.67 7.28 1.34 10 1 C10 2.32 10 3.64 10 5 C8.53984709 4.71758359 7.08190207 4.42373386 5.625 4.125 C4.81289062 3.96257812 4.00078125 3.80015625 3.1640625 3.6328125 C1 3 1 3 -1 1 C-0.67 0.67 -0.34 0.34 0 0 Z " fill="#B2C611" transform="translate(156,329)"/>
<path d="M0 0 C0.66 0.33 1.32 0.66 2 1 C2.19392201 6.52677733 1.7479503 10.75614911 0 16 C-0.98204842 12.71871122 -1.13412615 9.73024479 -1.125 6.3125 C-1.12757813 5.33925781 -1.13015625 4.36601562 -1.1328125 3.36328125 C-1 1 -1 1 0 0 Z " fill="#29B4D0" transform="translate(386,231)"/>
<path d="M0 0 C0.96661363 3.12180401 0.98988909 5.52083795 0.5625 8.75 C0.40974609 9.94882812 0.40974609 9.94882812 0.25390625 11.171875 C0.12822266 12.07679687 0.12822266 12.07679687 0 13 C-2.39036607 9.4144509 -3 6.2914923 -3 2 C-2.01 1.34 -1.02 0.68 0 0 Z " fill="#DE1662" transform="translate(183,48)"/>
<path d="M0 0 C0.99 0 1.98 0 3 0 C3.433125 1.134375 3.86625 2.26875 4.3125 3.4375 C5.1478125 5.2009375 5.1478125 5.2009375 6 7 C6.99 7.33 7.98 7.66 9 8 C9.33 8.99 9.66 9.98 10 11 C9.01 11 8.02 11 7 11 C5.4296875 9.35546875 5.4296875 9.35546875 3.875 7.1875 C3.35679688 6.47980469 2.83859375 5.77210938 2.3046875 5.04296875 C1 3 1 3 0 0 Z " fill="#D72155" transform="translate(1433,168)"/>
<path d="M0 0 C4.29 0.33 8.58 0.66 13 1 C12.67 1.99 12.34 2.98 12 4 C6.06 3.01 6.06 3.01 0 2 C0 1.34 0 0.68 0 0 Z " fill="#B2BE0F" transform="translate(398,68)"/>
<path d="M0 0 C0.66 0.33 1.32 0.66 2 1 C1.34 2.65 0.68 4.3 0 6 C-0.66 6 -1.32 6 -2 6 C-2 7.32 -2 8.64 -2 10 C-2.66 10 -3.32 10 -4 10 C-3.43454163 6.04179141 -2.19097652 3.3340947 0 0 Z " fill="#D91E56" transform="translate(20,326)"/>
<path d="M0 0 C0.99 0.33 1.98 0.66 3 1 C1.68 3.31 0.36 5.62 -1 8 C-1.66 7.34 -2.32 6.68 -3 6 C-2.75 3.4375 -2.75 3.4375 -2 1 C-1.34 0.67 -0.68 0.34 0 0 Z " fill="#DA1859" transform="translate(164,119)"/>
<path d="M0 0 C0 0.33 0 0.66 0 1 C-10.55808656 2.33257403 -10.55808656 2.33257403 -15 1 C-15 0.67 -15 0.34 -15 0 C-9.77254141 -1.2063366 -5.23471686 -0.75612577 0 0 Z " fill="#A8244C" transform="translate(524,673)"/>
<path d="M0 0 C0.763125 0.0825 1.52625 0.165 2.3125 0.25 C1.9825 1.24 1.6525 2.23 1.3125 3.25 C-0.9975 3.58 -3.3075 3.91 -5.6875 4.25 C-3.34903846 0.31153846 -3.34903846 0.31153846 0 0 Z " fill="#31BADE" transform="translate(270.6875,423.75)"/>
<path d="M0 0 C0.33 0.66 0.66 1.32 1 2 C0.236875 2.4125 -0.52625 2.825 -1.3125 3.25 C-3.9366642 4.95875809 -5.30321976 6.41017753 -7 9 C-7.99 8.67 -8.98 8.34 -10 8 C-8.71064081 6.85157077 -7.41843421 5.70633773 -6.125 4.5625 C-5.04605469 3.60537109 -5.04605469 3.60537109 -3.9453125 2.62890625 C-2 1 -2 1 0 0 Z " fill="#D21B5A" transform="translate(84,365)"/>
<path d="M0 0 C0.66 0 1.32 0 2 0 C3.83691257 3.78187881 4.15837626 5.94568308 3 10 C-0.00617269 6.99382731 0.40414684 4.17618402 0 0 Z " fill="#2BBADC" transform="translate(474,294)"/>
<path d="M0 0 C0.66 0 1.32 0 2 0 C0.7874262 3.72433382 -0.50859979 7.37802806 -2 11 C-2.33 11 -2.66 11 -3 11 C-2.53199289 6.94393835 -2.12046792 3.53411321 0 0 Z " fill="#03091D" transform="translate(959,162)"/>
<path d="M0 0 C0.66 0 1.32 0 2 0 C0.7580393 3.43927579 -0.55740284 6.25207819 -3 9 C-3.66 9 -4.32 9 -5 9 C-5 8.34 -5 7.68 -5 7 C-4.34 7 -3.68 7 -3 7 C-2.87625 6.401875 -2.7525 5.80375 -2.625 5.1875 C-2 3 -2 3 0 0 Z " fill="#A6B419" transform="translate(208,376)"/>
<path d="M0 0 C0 0.66 0 1.32 0 2 C-2.3125 4.1875 -2.3125 4.1875 -5 6 C-5.99 5.67 -6.98 5.34 -8 5 C-3.16129032 0 -3.16129032 0 0 0 Z " fill="#C2D510" transform="translate(213,149)"/>
<path d="M0 0 C0.66 0.99 1.32 1.98 2 3 C0.54077307 2.88590407 -0.91740598 2.75834456 -2.375 2.625 C-3.59316406 2.52058594 -3.59316406 2.52058594 -4.8359375 2.4140625 C-7 2 -7 2 -9 0 C-5.85135005 -1.57432497 -3.35512575 -0.71895552 0 0 Z " fill="#CD1C57" transform="translate(225,436)"/>
<path d="M0 0 C0.33 0 0.66 0 1 0 C0.67 3.63 0.34 7.26 0 11 C-2.09907691 6.80184617 -2.21812126 6.20805526 -1 2 C-0.67 1.34 -0.34 0.68 0 0 Z " fill="#D62150" transform="translate(90,173)"/>
<path d="M0 0 C6.57142857 4 6.57142857 4 8 8 C6.68 7.34 5.36 6.68 4 6 C4 5.34 4 4.68 4 4 C3.01 4 2.02 4 1 4 C0.67 2.68 0.34 1.36 0 0 Z " fill="#DA2155" transform="translate(75,147)"/>
<path d="M0 0 C0.90105469 0.19464844 1.80210937 0.38929688 2.73046875 0.58984375 C3.41753906 0.74582031 4.10460937 0.90179688 4.8125 1.0625 C4.8125 1.3925 4.8125 1.7225 4.8125 2.0625 C3.02116022 2.11641993 1.22936101 2.15525571 -0.5625 2.1875 C-1.56023437 2.21070313 -2.55796875 2.23390625 -3.5859375 2.2578125 C-6.1875 2.0625 -6.1875 2.0625 -8.1875 0.0625 C-4.80475734 -1.06508089 -3.41971777 -0.75500262 0 0 Z " fill="#C51A52" transform="translate(130.1875,141.9375)"/>
<path d="M0 0 C4.75 0.75 4.75 0.75 7 3 C5.02 3.99 5.02 3.99 3 5 C1.5 3.625 1.5 3.625 0 2 C0 1.34 0 0.68 0 0 Z " fill="#EAC512" transform="translate(399,631)"/>
<path d="M0 0 C3.57104439 1.87949705 5.54744301 3.17053157 7 7 C5.02 6.34 3.04 5.68 1 5 C0.67 3.35 0.34 1.7 0 0 Z " fill="#0A7383" transform="translate(271,617)"/>
<path d="M0 0 C3.26954202 0.56371414 4.82575883 1.49962266 7 4 C4.69 3.67 2.38 3.34 0 3 C0 2.01 0 1.02 0 0 Z " fill="#F2CE1B" transform="translate(396,568)"/>
<path d="M0 0 C1.32 0 2.64 0 4 0 C4 0.66 4 1.32 4 2 C0.5980513 4.09350689 -2.05272412 4.17942163 -6 4 C-5.38125 3.71125 -4.7625 3.4225 -4.125 3.125 C-1.86674235 2.06279958 -1.86674235 2.06279958 0 0 Z " fill="#C71B57" transform="translate(186,448)"/>
<path d="M0 0 C0.33 0.66 0.66 1.32 1 2 C0.01 3.32 -0.98 4.64 -2 6 C-3.32 5.67 -4.64 5.34 -6 5 C-4.02 3.35 -2.04 1.7 0 0 Z " fill="#EDB917" transform="translate(375,633)"/>
<path d="M0 0 C2.3773161 2.3773161 2.67028521 3.70285207 3 7 C2.34 7.66 1.68 8.32 1 9 C-1.09230769 4.56923077 -1.09230769 4.56923077 -0.625 1.6875 C-0.41875 1.130625 -0.2125 0.57375 0 0 Z " fill="#BBCD18" transform="translate(209,359)"/>
<path d="M0 0 C2.31 1.98 4.62 3.96 7 6 C6.01 6.33 5.02 6.66 4 7 C3.34 6.01 2.68 5.02 2 4 C1.01 3.34 0.02 2.68 -1 2 C-0.67 1.34 -0.34 0.68 0 0 Z " fill="#B2A818" transform="translate(429,78)"/>
</svg>
